<svg xmlns="http://www.w3.org/2000/svg" width="147.636" height="118.915" viewBox="0 0 147.636 118.915">
  <g id="Group_1180" data-name="Group 1180" transform="translate(-567.983 -1056.057)">
    <path id="icons8-online_store" d="M9.078,4A4.582,4.582,0,0,0,4.519,8.558V14.5A76.314,76.314,0,0,0,3,26.033a9.892,9.892,0,0,0,1.514,5.7l.006.009V63.26a4.582,4.582,0,0,0,4.558,4.558h4.3a1.52,1.52,0,0,0,.5,0h13.18a1.52,1.52,0,0,0,.5,0H63.779a4.582,4.582,0,0,0,4.558-4.558V31.742l.006-.009a9.892,9.892,0,0,0,1.514-5.7A76.313,76.313,0,0,0,68.338,14.5V8.558A4.582,4.582,0,0,0,63.779,4Zm0,3.039h54.7A1.5,1.5,0,0,1,65.3,8.558v4.558h-18a1.375,1.375,0,0,0-.478,0H36.663a1.375,1.375,0,0,0-.478,0H26.027a1.375,1.375,0,0,0-.478,0H7.558V8.558A1.5,1.5,0,0,1,9.078,7.039ZM10.6,8.558a1.519,1.519,0,1,0,1.519,1.519A1.519,1.519,0,0,0,10.6,8.558Zm4.558,0a1.519,1.519,0,1,0,1.519,1.519A1.519,1.519,0,0,0,15.156,8.558Zm4.558,0a1.519,1.519,0,1,0,1.519,1.519A1.519,1.519,0,0,0,19.714,8.558Zm-12.349,7.6h6.271v13.5a5.185,5.185,0,0,1-3.8,1.692A3,3,0,0,1,7.012,30a7.18,7.18,0,0,1-.973-3.968A69.214,69.214,0,0,1,7.366,16.156Zm9.31,0h7.6v13.5a5.12,5.12,0,0,1-7.6.009Zm10.636,0h7.6v13.5a5.12,5.12,0,0,1-7.6.009Zm10.636,0h7.6v13.5a5.12,5.12,0,0,1-7.6.009Zm10.636,0h7.6V29.668a5.129,5.129,0,0,1-7.6,0Zm10.636,0h6.271a69.213,69.213,0,0,1,1.327,9.877A7.18,7.18,0,0,1,65.845,30a3,3,0,0,1-2.825,1.35,5.2,5.2,0,0,1-3.8-1.683ZM15.156,32.434a8.209,8.209,0,0,0,10.636,0,8.209,8.209,0,0,0,10.636,0,8.213,8.213,0,0,0,10.636,0,8.218,8.218,0,0,0,10.636,0A8.266,8.266,0,0,0,63.02,34.39a6.925,6.925,0,0,0,2.279-.383V63.26a1.5,1.5,0,0,1-1.519,1.519H28.831V38.948H12.117V64.779H9.078A1.5,1.5,0,0,1,7.558,63.26V34.007a6.925,6.925,0,0,0,2.279.383A8.261,8.261,0,0,0,15.156,32.434ZM33.39,38.948V60.221H60.74V38.948ZM15.156,41.987H25.792V64.779H15.156Zm21.273,0H57.7V57.182H36.429Z" transform="translate(564.983 1052.057)" fill="#d40029"/>
    <path id="icons8-online_store-2" data-name="icons8-online_store" d="M9.078,4A4.582,4.582,0,0,0,4.519,8.558V14.5A76.314,76.314,0,0,0,3,26.033a9.892,9.892,0,0,0,1.514,5.7l.006.009V63.26a4.582,4.582,0,0,0,4.558,4.558h4.3a1.52,1.52,0,0,0,.5,0h13.18a1.52,1.52,0,0,0,.5,0H63.779a4.582,4.582,0,0,0,4.558-4.558V31.742l.006-.009a9.892,9.892,0,0,0,1.514-5.7A76.313,76.313,0,0,0,68.338,14.5V8.558A4.582,4.582,0,0,0,63.779,4Zm0,3.039h54.7A1.5,1.5,0,0,1,65.3,8.558v4.558h-18a1.375,1.375,0,0,0-.478,0H36.663a1.375,1.375,0,0,0-.478,0H26.027a1.375,1.375,0,0,0-.478,0H7.558V8.558A1.5,1.5,0,0,1,9.078,7.039ZM10.6,8.558a1.519,1.519,0,1,0,1.519,1.519A1.519,1.519,0,0,0,10.6,8.558Zm4.558,0a1.519,1.519,0,1,0,1.519,1.519A1.519,1.519,0,0,0,15.156,8.558Zm4.558,0a1.519,1.519,0,1,0,1.519,1.519A1.519,1.519,0,0,0,19.714,8.558Zm-12.349,7.6h6.271v13.5a5.185,5.185,0,0,1-3.8,1.692A3,3,0,0,1,7.012,30a7.18,7.18,0,0,1-.973-3.968A69.214,69.214,0,0,1,7.366,16.156Zm9.31,0h7.6v13.5a5.12,5.12,0,0,1-7.6.009Zm10.636,0h7.6v13.5a5.12,5.12,0,0,1-7.6.009Zm10.636,0h7.6v13.5a5.12,5.12,0,0,1-7.6.009Zm10.636,0h7.6V29.668a5.129,5.129,0,0,1-7.6,0Zm10.636,0h6.271a69.213,69.213,0,0,1,1.327,9.877A7.18,7.18,0,0,1,65.845,30a3,3,0,0,1-2.825,1.35,5.2,5.2,0,0,1-3.8-1.683ZM15.156,32.434a8.209,8.209,0,0,0,10.636,0,8.209,8.209,0,0,0,10.636,0,8.213,8.213,0,0,0,10.636,0,8.218,8.218,0,0,0,10.636,0A8.266,8.266,0,0,0,63.02,34.39a6.925,6.925,0,0,0,2.279-.383V63.26a1.5,1.5,0,0,1-1.519,1.519H28.831V38.948H12.117V64.779H9.078A1.5,1.5,0,0,1,7.558,63.26V34.007a6.925,6.925,0,0,0,2.279.383A8.261,8.261,0,0,0,15.156,32.434ZM33.39,38.948V60.221H60.74V38.948ZM15.156,41.987H25.792V64.779H15.156Zm21.273,0H57.7V57.182H36.429Z" transform="translate(645.761 1107.133)" fill="#d40029"/>
    <path id="Subtraction_13" data-name="Subtraction 13" d="M-3603.522,1838.075a40.672,40.672,0,0,1-12.584-2,40.841,40.841,0,0,1-8.841-4.089,40.5,40.5,0,0,1-7.392-5.861,40.931,40.931,0,0,1-5.768-7.288,41.172,41.172,0,0,1-3.97-8.37l-3.786,11.654a2.035,2.035,0,0,1-1.955,1.436,2.052,2.052,0,0,1-.594-.088,2.05,2.05,0,0,1-1.217-1.023,2.051,2.051,0,0,1-.113-1.585l6.3-19.385,19.385,6.3a2.058,2.058,0,0,1,1.391,1.515,2.07,2.07,0,0,1-.635,1.954,2.045,2.045,0,0,1-1.359.516,2.05,2.05,0,0,1-.657-.108l-13.486-4.381a37.054,37.054,0,0,0,8.647,15.256,36.4,36.4,0,0,0,6.911,5.718,36.77,36.77,0,0,0,8.4,3.955,36.735,36.735,0,0,0,11.367,1.811c.629,0,1.266-.017,1.895-.049v4.071C-3602.236,1838.06-3602.887,1838.075-3603.522,1838.075Z" transform="translate(4244.839 -672.651)" fill="#d40029"/>
    <path id="Subtraction_12" data-name="Subtraction 12" d="M-3561.411,1831.2h0l-19.384-6.3a2.058,2.058,0,0,1-1.392-1.516,2.069,2.069,0,0,1,.635-1.953,2.046,2.046,0,0,1,1.359-.516,2.055,2.055,0,0,1,.657.108l13.486,4.382a37.053,37.053,0,0,0-8.647-15.257,36.4,36.4,0,0,0-6.911-5.718,36.773,36.773,0,0,0-8.4-3.954,36.729,36.729,0,0,0-11.366-1.811c-.628,0-1.266.017-1.894.049v-4.072c.65-.031,1.3-.046,1.936-.046a40.662,40.662,0,0,1,12.584,2,40.839,40.839,0,0,1,8.841,4.09,40.508,40.508,0,0,1,7.392,5.861,40.956,40.956,0,0,1,5.768,7.288,41.2,41.2,0,0,1,3.97,8.37l3.786-11.653a2.034,2.034,0,0,1,1.956-1.437,2.052,2.052,0,0,1,.592.088,2.059,2.059,0,0,1,1.217,1.024,2.056,2.056,0,0,1,.113,1.585l-6.3,19.385Z" transform="translate(4245.99 -727.273)" fill="#d40029"/>
  </g>
</svg>
