<?xml version="1.0" encoding="utf-8"?>
<!-- Generator: Adobe Illustrator 27.2.0, SVG Export Plug-In . SVG Version: 6.00 Build 0)  -->
<svg version="1.1" id="Layer_2_00000170989063923657200230000012546192816223770045_"
	 xmlns="http://www.w3.org/2000/svg" xmlns:xlink="http://www.w3.org/1999/xlink" x="0px" y="0px" viewBox="0 0 193.5 199.9"
	 style="enable-background:new 0 0 193.5 199.9;" xml:space="preserve">
<style type="text/css">
	.st0{fill:#D40029;}
</style>
<g id="Inventory_Mgmt">
	<g id="In-Stock_Position">
		<g>
			<path class="st0" d="M45.9,45.7c-1.4-1.4-3.6-1.4-4.9,0l-4.7,4.7L35,49.1c-1.4-1.4-3.6-1.4-4.9,0s-1.4,3.6,0,4.9l3.8,3.8
				c0.7,0.7,1.5,1,2.5,1s1.8-0.4,2.5-1l7.2-7.2C47.3,49.3,47.3,47.1,45.9,45.7L45.9,45.7z"/>
			<path class="st0" d="M58.7,126.4h6.2c1.9,0,3.5-1.6,3.5-3.5s-1.6-3.5-3.5-3.5h-6.2c-1.9,0-3.5,1.6-3.5,3.5S56.8,126.4,58.7,126.4
				z"/>
			<path class="st0" d="M58.7,150.5h6.4c1.9,0,3.5-1.6,3.5-3.5s-1.6-3.5-3.5-3.5h-6.4c-1.9,0-3.5,1.6-3.5,3.5S56.8,150.5,58.7,150.5
				z"/>
			<path class="st0" d="M193.5,110.6c0-0.4-0.1-0.9-0.2-1.3c0-0.1,0-0.2-0.1-0.3c-0.1-0.5-0.3-1-0.6-1.4c-0.1-0.1-0.1-0.2-0.2-0.3
				c-0.2-0.3-0.4-0.7-0.7-1c-0.1-0.1-0.2-0.2-0.4-0.4c-0.3-0.3-0.6-0.5-0.9-0.7c-0.1-0.1-0.1-0.1-0.2-0.2c0,0-0.1,0-0.1-0.1
				c-0.4-0.2-0.8-0.4-1.2-0.6c-0.1,0-0.1-0.1-0.2-0.1c0,0,0,0,0,0l-52.1-17.4c-1.4-0.5-3-0.5-4.4,0L80,104.1c0,0,0,0-0.1,0
				c-0.1,0-0.2,0.1-0.4,0.2c-0.4,0.1-0.7,0.3-1.1,0.5c-0.1,0-0.1,0.1-0.2,0.1c-0.1,0.1-0.2,0.1-0.2,0.2c-0.3,0.2-0.6,0.5-0.8,0.7
				c-0.1,0.1-0.2,0.2-0.3,0.4c-0.3,0.3-0.5,0.6-0.7,1c-0.1,0.1-0.1,0.2-0.2,0.3c-0.2,0.5-0.4,0.9-0.6,1.4c0,0.1,0,0.2-0.1,0.3
				c-0.1,0.4-0.1,0.8-0.2,1.2c0,0.1,0,0.1,0,0.2v56.9c0,2.7,1.6,5.2,4,6.3l53.7,25.3c0,0,0.1,0,0.1,0c0.3,0.1,0.7,0.3,1,0.4
				c0.1,0,0.2,0.1,0.4,0.1c0.5,0.1,1,0.2,1.5,0.2s1-0.1,1.5-0.2c0.1,0,0.3-0.1,0.4-0.1c0.4-0.1,0.7-0.2,1-0.4c0.1,0,0.1,0,0.2-0.1
				l50.6-25.3c2.4-1.2,3.9-3.6,3.9-6.2v-56.9C193.5,110.7,193.5,110.6,193.5,110.6L193.5,110.6z M129,182l-39.8-18.7v-4.6l39.8,18.7
				V182z M129,164.5l-39.8-18.7v-24.6l39.8,16.4V164.5L129,164.5z M135.9,125.3l-33.7-13.9l32.2-10.7l32.7,10.9L135.9,125.3z
				 M179.6,163.3L143,181.7v-4.5l36.6-18.3V163.3z M179.6,145.9L143,164.2v-26.7l36.6-16V145.9L179.6,145.9z"/>
			<path class="st0" d="M45.9,67.6c-1.4-1.4-3.6-1.4-4.9,0l-4.7,4.7L35,71c-1.4-1.4-3.6-1.4-4.9,0s-1.4,3.6,0,4.9l3.8,3.8
				c0.7,0.7,1.5,1,2.5,1s1.8-0.4,2.5-1l7.2-7.2C47.3,71.2,47.3,68.9,45.9,67.6L45.9,67.6z"/>
			<path class="st0" d="M45.9,91.6c-1.4-1.4-3.6-1.4-4.9,0l-4.7,4.7L35,95c-1.4-1.4-3.6-1.4-4.9,0s-1.4,3.6,0,4.9l3.8,3.8
				c0.7,0.6,1.5,1,2.5,1s1.8-0.4,2.5-1l7.2-7.2C47.3,95.2,47.3,93,45.9,91.6L45.9,91.6z"/>
			<path class="st0" d="M46.3,118.8c0-2.4-1.9-4.3-4.3-4.3h-8.1c-2.4,0-4.3,1.9-4.3,4.3v8.1c0,2.4,1.9,4.3,4.3,4.3H42
				c2.4,0,4.3-1.9,4.3-4.3V118.8z M39.3,124.2h-2.8v-2.8h2.8V124.2z"/>
			<path class="st0" d="M42,138.5h-8.1c-2.4,0-4.3,1.9-4.3,4.3v8.1c0,2.4,1.9,4.3,4.3,4.3H42c2.4,0,4.3-1.9,4.3-4.3v-8.1
				C46.3,140.5,44.4,138.5,42,138.5z M39.3,148.3h-2.8v-2.8h2.8V148.3z"/>
			<path class="st0" d="M79,97.8c0-1.9-1.6-3.5-3.5-3.5H58.7c-1.9,0-3.5,1.6-3.5,3.5s1.6,3.5,3.5,3.5h16.8
				C77.4,101.3,79,99.7,79,97.8z"/>
			<path class="st0" d="M116.9,73.7c0-1.9-1.6-3.5-3.5-3.5H58.7c-1.9,0-3.5,1.6-3.5,3.5c0,1.9,1.6,3.5,3.5,3.5h54.7
				C115.3,77.2,116.9,75.6,116.9,73.7z"/>
			<path class="st0" d="M113.4,48.3H58.7c-1.9,0-3.5,1.6-3.5,3.5s1.6,3.5,3.5,3.5h54.7c1.9,0,3.5-1.6,3.5-3.5S115.3,48.3,113.4,48.3
				z"/>
			<path class="st0" d="M119.8,198.2l-24.4-11.5c-1-0.5-2.1-0.7-3.2-0.7H20.7c-3.7,0-6.7-3-6.7-6.7V31.6c0-3.7,3-6.7,6.7-6.7h23.2
				C44,30.9,49,35.8,55.1,35.8h46.1c6.1,0,11.1-4.9,11.3-10.9h23.2c3.7,0,6.7,3,6.7,6.7v51c0,0.7,0.4,1.3,1.1,1.5l10.7,3.6
				c1,0.3,2.1-0.4,2.1-1.5V31.6c0-11.4-9.2-20.7-20.7-20.7h-23.2C112.2,4.9,107.3,0,101.2,0H55.1C49,0,44,4.9,43.8,10.9H20.7
				C9.2,10.9,0,20.2,0,31.6v147.6c0,11.4,9.2,20.7,20.7,20.7h98.7C120.4,199.9,120.7,198.6,119.8,198.2L119.8,198.2L119.8,198.2z"/>
		</g>
	</g>
</g>
</svg>
