<svg xmlns="http://www.w3.org/2000/svg" width="115.255" height="117.941" viewBox="0 0 115.255 117.941">
  <path id="icons8-profit_analysis" d="M48.657,3A45.657,45.657,0,1,0,75.347,85.628l35.313,35.313,7.6-7.6L83.267,78.358A45.6,45.6,0,0,0,48.657,3Zm0,5.371A40.286,40.286,0,1,1,8.371,48.657,40.245,40.245,0,0,1,48.657,8.371ZM45.972,19.114v5.6a12.419,12.419,0,0,0-9.043,5.8,13.16,13.16,0,0,0-1.7,6.022,11.35,11.35,0,0,0,4.9,9.3c2.731,1.954,5.943,3.036,8.944,4.139a29.063,29.063,0,0,1,7.569,3.64A6.428,6.428,0,0,1,59.4,59.4a8.364,8.364,0,0,1-1.269,3.95c-1.252,2-3.475,4.107-9.473,4.107-5.819,0-7.989-2.513-9.348-5.23a14.206,14.206,0,0,1-1.4-5.513H32.543A19.265,19.265,0,0,0,34.5,64.63a14.867,14.867,0,0,0,11.467,8.01V78.2h5.371V72.677c5.844-.68,9.5-3.543,11.341-6.484A14.026,14.026,0,0,0,64.772,59.4a12.527,12.527,0,0,0-4.794-9.993c-2.737-2.165-6.006-3.351-9.049-4.469a35.3,35.3,0,0,1-7.674-3.467A5.231,5.231,0,0,1,40.6,36.54a7.721,7.721,0,0,1,.986-3.347c.959-1.672,2.48-3.336,7.071-3.336,4.476,0,5.975,1.842,7,3.887a10.864,10.864,0,0,1,1.06,4.17h5.371a15.921,15.921,0,0,0-1.626-6.573,12.518,12.518,0,0,0-9.117-6.6V19.114Z" transform="translate(-3 -3)" fill="#d40029"/>
</svg>
