<svg xmlns="http://www.w3.org/2000/svg" width="114.033" height="114" viewBox="0 0 114.033 114">
  <path id="icons8-trolley" d="M20.526.007c-7.347,0-12.476,2.5-15.673,5.058A18.564,18.564,0,0,0,.222,10.408,2.294,2.294,0,1,0,4.354,12.4,12.35,12.35,0,0,1,7.7,8.627C9.965,6.82,13.7,5.119,19.03,4.78l38.4,97.388a2.327,2.327,0,0,0,1.229,1.273,2.284,2.284,0,0,0,1.763.009L111.431,83.5a2.289,2.289,0,1,0-1.639-4.275L60.849,98.392,22.664,1.432A2.274,2.274,0,0,0,20.526.007Zm63.762,0a2.408,2.408,0,0,0-.427.142L37.268,18.744a2.284,2.284,0,0,0-1.282,2.921l6.839,17.169,6.554,16.314a2.408,2.408,0,0,0,.142.427,1.919,1.919,0,0,0,.214.427L56.5,73.1l6.483,16.314a2.327,2.327,0,0,0,1.229,1.273,2.284,2.284,0,0,0,1.763.009l46.592-18.523a2.327,2.327,0,0,0,1.273-1.229,2.284,2.284,0,0,0,.009-1.763L100.389,35.414l-.071-.071a1.919,1.919,0,0,0-.214-.427L86.853,1.432A2.277,2.277,0,0,0,84.5.007Zm-.855,5.272L95.259,34.916l-5.7,2.28L52.87,51.729,47.1,37.124,41.115,22.092ZM73.1,14.327a2.666,2.666,0,0,0-.285.071,2.476,2.476,0,0,0-.356.142L55.506,21.308a2.28,2.28,0,1,0,1.639,4.2l16.956-6.7a2.3,2.3,0,0,0-1-4.488ZM96.969,39.119l11.755,29.708L66.406,85.64l-5.7-14.248L54.58,56l2.565-1ZM86.781,48.167a2.666,2.666,0,0,0-.285.071,2.205,2.205,0,0,0-.57.214l-16.956,6.7a2.3,2.3,0,0,0,1.71,4.275l16.956-6.768a2.284,2.284,0,1,0-.855-4.488ZM43.324,91.2a11.4,11.4,0,1,0,11.4,11.4A11.432,11.432,0,0,0,43.324,91.2Zm0,4.559a6.839,6.839,0,1,1-6.839,6.839A6.807,6.807,0,0,1,43.324,95.756Z" transform="translate(0.007 0.005)" fill="#d40029"/>
</svg>
