<svg xmlns="http://www.w3.org/2000/svg" width="105.853" height="129.569" viewBox="0 0 105.853 129.569">
  <g id="Path_2872" data-name="Path 2872" transform="translate(-171.968 -242.259)" fill="none" stroke-linejoin="round" stroke-miterlimit="10">
    <path d="M183.713,246.259c7.085,7.122,14.138,14.274,21.3,21.318a5.043,5.043,0,0,0,3.216,1.158q12.029.143,24.062,0a8.123,8.123,0,0,0,3.679-1.07c5.313-2.96,10.554-6.048,15.83-9.076.853-.49,1.752-.9,2.821-1.444,2.07,7.108-3.988,8.377-8.453,11.592h21.4c0,4.43-2.743,7.085-7.382,7.2a99.826,99.826,0,0,0-12.51.662l16.357,9.529c-2.3,3.6-5.863,4.642-9.5,2.714-3.132-1.662-6.154-3.532-9.237-5.289a11.268,11.268,0,0,0-2.786-1.164c5.357,6.88,2.349,14.642,3.154,22.062-4.344-.569-6.692-2.74-6.4-6.547.336-4.3-2.225-7.227-4.048-10.533a2.71,2.71,0,0,0-2.013-.87c-2.835-.1-5.675-.04-9.347-.04,1.976,2,3.482,3.531,4.994,5.054,2.5,2.521,5.1,4.962,7.5,7.577,2.779,3.025,2.681,6.312-.186,9.6a19.4,19.4,0,0,1-1.983-1.763c-5.107-5.928-11.448-10.145-18.245-13.928-12.665-7.05-25.092-14.528-37.721-21.645-2.395-1.349-2.679-2.6-1.779-4.993,2.2-5.874,4.159-11.843,6.184-17.784a18.52,18.52,0,0,0,.483-2.325Zm52.938,74.933-4.743.3c0,11.349-.034,22.5.078,33.639.007.714,1.013,1.638,1.776,2.089,5.668,3.357,11.419,6.574,17.08,9.942a3.209,3.209,0,0,0,3.833.064c5.642-3.4,11.437-6.544,17.038-10.005a4.9,4.9,0,0,0,2-3.494c.164-9.336.091-18.675.091-28.013V321.5l-4.09-.374,1.542-6.578-30.518-8.168Zm5.888-11.659,25.243,6.782c-.289,5-.289,5-4.809,5h-23.59C240.505,317.122,241.493,313.438,242.539,309.533Z" stroke="none"/>
    <path d="M 183.1028442382812 246.2590026855469 C 182.9459838867188 247.0359497070312 182.8736572265625 247.8411254882812 182.6199951171875 248.5843505859375 C 180.5948791503906 254.5255126953125 178.6395874023438 260.4936828613281 176.4355773925781 266.3680419921875 C 175.5360717773438 268.7644958496094 175.8203735351562 270.0114135742188 178.2149658203125 271.3607177734375 C 190.8436279296875 278.4783020019531 203.2706756591797 285.9556579589844 215.9361267089844 293.005859375 C 222.7332763671875 296.7889709472656 229.073974609375 301.005859375 234.1811981201172 306.9335327148438 C 234.7541046142578 307.598388671875 235.5004577636719 308.1130676269531 236.1646728515625 308.697021484375 C 239.0322723388672 305.4127197265625 239.1296997070312 302.1253356933594 236.3509521484375 299.1002502441406 C 233.9495849609375 296.4850158691406 231.3576812744141 294.0444641113281 228.8533782958984 291.5230407714844 C 227.3405303955078 289.9997863769531 225.8350372314453 288.4691162109375 223.8589019775391 286.4691162109375 C 225.8442840576172 286.4691162109375 227.586181640625 286.4524536132812 229.2157287597656 286.4524536132812 C 230.6002349853516 286.4524536132812 231.9036712646484 286.4645080566406 233.2057342529297 286.5089721679688 C 233.9042510986328 286.5328369140625 234.9342498779297 286.8630981445312 235.2191772460938 287.3790283203125 C 237.0414733886719 290.6847839355469 239.6027526855469 293.6081848144531 239.2669830322266 297.912109375 C 238.9703979492188 301.7190856933594 241.3190765380859 303.8900451660156 245.6628112792969 304.4586791992188 C 244.8576507568359 297.0389099121094 247.8656616210938 289.2767028808594 242.5084075927734 282.3968505859375 C 243.5880279541016 282.6823425292969 244.4618530273438 283.0849609375 245.2945098876953 283.5604553222656 C 248.3772583007812 285.3177795410156 251.3993072509766 287.1878662109375 254.5316619873047 288.849609375 C 255.7406921386719 289.4906921386719 256.941162109375 289.8038330078125 258.0897827148438 289.8038330078125 C 260.3961181640625 289.8038330078125 262.4934692382812 288.5412902832031 264.0310363769531 286.1357727050781 C 258.5763854980469 282.9580993652344 253.1254272460938 279.7822265625 247.673828125 276.6063842773438 C 251.956298828125 275.9667053222656 256.0726928710938 276.0500183105469 260.1836242675781 275.9446105957031 C 264.8233032226562 275.8257446289062 267.5616760253906 273.1701354980469 267.56591796875 268.7406005859375 L 246.1658325195312 268.7406005859375 C 250.6315765380859 265.526123046875 256.6897277832031 264.2565612792969 254.6193084716797 257.1486511230469 C 253.5500335693359 257.6928100585938 252.6511535644531 258.1033325195312 251.7982025146484 258.5929565429688 C 246.5224761962891 261.6204833984375 241.2810821533203 264.7093505859375 235.9679870605469 267.6689147949219 C 234.8736114501953 268.278564453125 233.5255584716797 268.7240600585938 232.2890625 268.73876953125 C 228.3430633544922 268.7851867675781 224.3973999023438 268.8081665039062 220.4510498046875 268.8081665039062 C 216.3764190673828 268.8081665039062 212.3011169433594 268.7836608886719 208.2272033691406 268.7350769042969 C 207.1359100341797 268.7222290039062 205.7578277587891 268.3110656738281 205.0115051269531 267.5769958496094 C 197.8509826660156 260.5334777832031 190.7970581054688 253.3809204101562 183.7125244140625 246.2590026855469 L 183.1028442382812 246.2590026855469 M 240.7381744384766 306.384521484375 C 239.2853546142578 311.6479797363281 237.9532623291016 316.4733581542969 236.6505737304688 321.1921081542969 C 234.9005737304688 321.3018188476562 233.5176086425781 321.3882141113281 231.9073028564453 321.4886779785156 C 231.9073028564453 332.8373107910156 231.8736114501953 343.9837646484375 231.9857482910156 355.1277465820312 C 231.9931335449219 355.8421936035156 232.9986114501953 356.7655944824219 233.761474609375 357.2171936035156 C 239.4293518066406 360.5737915039062 245.1805572509766 363.7913208007812 250.8417358398438 367.1596069335938 C 251.5670623779297 367.5911560058594 252.1896057128906 367.8283996582031 252.8283081054688 367.8283996582031 C 253.4020233154297 367.8283996582031 253.9887390136719 367.6370849609375 254.675048828125 367.2232971191406 C 260.3165893554688 363.8244018554688 266.1119384765625 360.67919921875 271.7130737304688 357.2178039550781 C 272.7381286621094 356.5841979980469 273.6927795410156 354.9261474609375 273.7142333984375 353.7239685058594 C 273.8778076171875 344.3881530761719 273.804931640625 335.0487060546875 273.804931640625 325.7105102539062 C 273.804931640625 324.322021484375 273.804931640625 322.9329223632812 273.804931640625 321.5046081542969 L 269.7148742675781 321.1302490234375 C 270.2381591796875 318.8979797363281 270.7313842773438 316.7926330566406 271.2565307617188 314.5523986816406 C 260.9642333984375 311.798095703125 251.0126800537109 309.1345520019531 240.7381744384766 306.384521484375 M 255.2566223144531 321.3136901855469 C 250.0881652832031 321.3136901855469 244.8463897705078 321.3134155273438 239.3821868896484 321.3134155273438 C 240.5053863525391 317.1222534179688 241.4931030273438 313.4378356933594 242.5390625 309.5328369140625 C 251.1168518066406 311.8373107910156 259.4795532226562 314.0842590332031 267.7816772460938 316.3146667480469 C 267.4924621582031 321.3121948242188 267.4924621582031 321.3128356933594 262.9722290039062 321.3134155273438 C 260.4066162109375 321.3136291503906 257.8406066894531 321.3136901855469 255.2566223144531 321.3136901855469 M 183.1028442382812 242.2590026855469 L 183.7125244140625 242.2590026855469 C 184.7770690917969 242.2590026855469 185.7976684570312 242.6833190917969 186.5484008789062 243.4380187988281 C 188.1160888671875 245.0139770507812 189.6822509765625 246.5914306640625 191.2484130859375 248.1688842773438 C 196.622314453125 253.5814514160156 202.1781311035156 259.17724609375 207.6996765136719 264.6104125976562 C 207.8341674804688 264.6667175292969 208.0890197753906 264.733154296875 208.2743072509766 264.7353515625 C 212.3271484375 264.7836608886719 216.4237976074219 264.8081665039062 220.4510498046875 264.8081665039062 C 224.3743286132812 264.8081665039062 228.3413848876953 264.784912109375 232.2420349121094 264.7390441894531 C 232.63134765625 264.7344055175781 233.3329010009766 264.5580749511719 234.0213623046875 264.1745300292969 C 237.5935363769531 262.1847229003906 241.2067108154297 260.0933532714844 244.700927734375 258.0708312988281 C 246.3723297119141 257.1033630371094 248.1006317138672 256.1029968261719 249.8073120117188 255.1236267089844 C 250.4889831542969 254.7322998046875 251.1494750976562 254.4061584472656 251.8487548828125 254.0608825683594 C 252.1574554443359 253.9085083007812 252.4766540527344 253.7508544921875 252.8050537109375 253.583740234375 C 253.3739624023438 253.2942199707031 253.9961395263672 253.1486511230469 254.619384765625 253.1486511230469 C 255.1592864990234 253.1486511230469 255.6999816894531 253.2579040527344 256.20751953125 253.4774475097656 C 257.3008728027344 253.9504699707031 258.1265258789062 254.88623046875 258.459716796875 256.0299987792969 C 259.4256591796875 259.3461303710938 259.17724609375 262.2703857421875 257.7236328125 264.7406005859375 L 267.56591796875 264.7406005859375 C 268.62744140625 264.7406005859375 269.6454467773438 265.1625366210938 270.3956909179688 265.9135131835938 C 271.1459350585938 266.6644897460938 271.56689453125 267.6828918457031 271.56591796875 268.7444152832031 C 271.5627746582031 272.018310546875 270.469482421875 274.8122863769531 268.404296875 276.8242492675781 C 266.5958862304688 278.5859985351562 264.1385498046875 279.6359558105469 261.2544555664062 279.8888854980469 L 266.0445251464844 282.6795043945312 C 266.9859008789062 283.2279052734375 267.662841796875 284.1365661621094 267.9189453125 285.1955261230469 C 268.175048828125 286.2544555664062 267.9880981445312 287.3720703125 267.4013671875 288.2900390625 C 266.311767578125 289.9947204589844 264.97900390625 291.337646484375 263.4401245117188 292.2815551757812 C 261.7933044433594 293.2916564941406 259.9932250976562 293.8038330078125 258.0897827148438 293.8038330078125 C 256.2627563476562 293.8038330078125 254.4351806640625 293.3259887695312 252.6578063964844 292.3835754394531 C 251.6576232910156 291.8529663085938 250.669189453125 291.3023986816406 249.6941528320312 290.7456359863281 C 249.8833312988281 293.1003112792969 249.7645721435547 295.3956298828125 249.6490325927734 297.6287231445312 C 249.5321502685547 299.8875122070312 249.4217834472656 302.0210571289062 249.6394500732422 304.0271301269531 C 249.6613922119141 304.2292785644531 249.6677551269531 304.4312438964844 249.6591033935547 304.6314392089844 C 257.1963500976562 306.6487731933594 264.6492919921875 308.6434936523438 272.2905883789062 310.6883544921875 C 274.3776550292969 311.2468566894531 275.64404296875 313.3617553710938 275.1510009765625 315.4652709960938 L 274.6518249511719 317.594970703125 C 276.4698486328125 317.9870300292969 277.804931640625 319.6014404296875 277.804931640625 321.5046081542969 L 277.804931640625 325.7105102539062 C 277.804931640625 327.9070739746094 277.8090209960938 330.142333984375 277.81298828125 332.3039855957031 C 277.8259582519531 339.341796875 277.83935546875 346.6192016601562 277.713623046875 353.7940368652344 C 277.6681823730469 356.3408813476562 275.99267578125 359.2749633789062 273.8162231445312 360.6202697753906 C 270.6502075195312 362.5767822265625 267.3970336914062 364.4490661621094 264.2509765625 366.2597045898438 C 261.7734985351562 367.685546875 259.2117004394531 369.1599426269531 256.7392578125 370.6495361328125 C 255.423828125 371.4425659179688 254.1442108154297 371.8283996582031 252.8283081054688 371.8283996582031 C 251.0691833496094 371.8283996582031 249.6847076416016 371.1257019042969 248.79638671875 370.5971069335938 C 245.8768615722656 368.8600463867188 242.8716278076172 367.1279296875 239.9653625488281 365.452880859375 C 237.260986328125 363.8941650390625 234.4645233154297 362.2823486328125 231.7232360839844 360.658935546875 C 230.85498046875 360.1449584960938 228.0175476074219 358.2289123535156 227.9859771728516 355.1690368652344 C 227.8946990966797 346.1001586914062 227.89990234375 336.8345031738281 227.9049224853516 327.8739318847656 C 227.9060974121094 325.7517700195312 227.9073028564453 323.6238098144531 227.9073028564453 321.4886779785156 C 227.9073028564453 319.376220703125 229.5499267578125 317.6279296875 231.6582794189453 317.4964294433594 C 232.314453125 317.4554748535156 232.9329681396484 317.4168701171875 233.5538635253906 317.3780822753906 C 233.9969329833984 315.7731628417969 234.4453277587891 314.1488342285156 234.9025115966797 312.49267578125 C 234.3992919921875 312.3253784179688 233.9296417236328 312.05810546875 233.5236053466797 311.7011413574219 C 233.3692321777344 311.5654296875 233.1842803955078 311.4148559570312 232.9884490966797 311.2555236816406 C 232.4466552734375 310.8145446777344 231.7723846435547 310.2657470703125 231.1510009765625 309.544677734375 C 228.9549560546875 306.9958190917969 226.3925323486328 304.653564453125 223.3171539306641 302.3839111328125 C 220.7144775390625 300.463134765625 217.7509765625 298.5937805175781 213.9908599853516 296.5010070800781 C 207.0870361328125 292.6579895019531 200.1556091308594 288.6316833496094 193.4524078369141 284.7379150390625 C 187.8246765136719 281.4688720703125 182.0053405761719 278.0885314941406 176.2509765625 274.8453674316406 C 174.9185180664062 274.0945434570312 173.0580444335938 272.8283386230469 172.2922973632812 270.5130920410156 C 171.5848388671875 268.3740234375 172.1808166503906 266.3207702636719 172.690673828125 264.9624328613281 C 174.3870849609375 260.4409790039062 175.9709167480469 255.7543334960938 177.5025939941406 251.2219848632812 C 177.9375610351562 249.9348754882812 178.3873291015625 248.6039733886719 178.8338928222656 247.2937927246094 C 178.9006652832031 247.0982360839844 178.96337890625 246.7190856933594 179.0240173339844 246.3524169921875 C 179.0681457519531 246.085693359375 179.1181640625 245.7833862304688 179.1819763183594 245.4673156738281 C 179.5588073730469 243.6010131835938 181.1989135742188 242.2590026855469 183.1028442382812 242.2590026855469 Z M 256.0837707519531 317.3136901855469 L 254.0132751464844 316.7574157714844 L 245.3669281005859 314.4344482421875 C 245.1111145019531 315.3890686035156 244.8549346923828 316.3449401855469 244.5953521728516 317.3135070800781 L 247.5405578613281 317.3135681152344 L 255.2566375732422 317.3136901855469 C 255.5326232910156 317.3136901855469 255.8081817626953 317.3136901855469 256.0837707519531 317.3136901855469 Z" stroke="none" fill="#d40929"/>
  </g>
</svg>
