<svg xmlns="http://www.w3.org/2000/svg" width="22.846" height="17.947" viewBox="0 0 22.846 17.947">
  <path id="Mail_icon" data-name="Mail icon" d="M.013,5.821A37.167,37.167,0,0,0,4.222,8.881c1.406,1.012,2.816,2.02,4.251,2.992a10.413,10.413,0,0,0,1.705.9,3.4,3.4,0,0,0,2.764-.1,13.606,13.606,0,0,0,2.449-1.53c1.983-1.381,3.976-2.749,5.956-4.135.508-.356.981-.762,1.472-1.147,0,.025.012.087.012.149q0,4.915,0,9.83a2.051,2.051,0,0,1-2.086,2.1c-.487.008-.974,0-1.461,0q-8.546,0-17.092,0a2.056,2.056,0,0,1-1.98-1.168,1.864,1.864,0,0,1-.2-.807C0,12.626,0,9.281,0,5.936,0,5.9.008,5.869.013,5.821ZM2.224,0A2.337,2.337,0,0,0,.935.3,2.49,2.49,0,0,0,.223,3.273a6.143,6.143,0,0,0,2.06,2.333Q5.121,7.6,7.974,9.563c.775.534,1.556,1.063,2.36,1.552a1.843,1.843,0,0,0,1.686.2,6.507,6.507,0,0,0,1.251-.644q3.709-2.552,7.392-5.142a5.118,5.118,0,0,0,1.97-2.393,2.357,2.357,0,0,0,0-1.948,2.077,2.077,0,0,0-2-1.185q-4.62,0-9.24,0Z" transform="translate(0 0)" fill="#fff"/>
</svg>
