<?xml version="1.0" encoding="utf-8"?>
<!-- Generator: Adobe Illustrator 27.2.0, SVG Export Plug-In . SVG Version: 6.00 Build 0)  -->
<svg version="1.1" id="Layer_2_00000052792682057539173970000017615163172676937405_"
	 xmlns="http://www.w3.org/2000/svg" xmlns:xlink="http://www.w3.org/1999/xlink" x="0px" y="0px" viewBox="0 0 165.5 180.5"
	 style="enable-background:new 0 0 165.5 180.5;" xml:space="preserve">
<style type="text/css">
	.st0{fill:#FFFFFF;}
	.st1{fill:#D40029;}
</style>
<g>
	<path class="st0" d="M36.9,59.1c0,0.2-0.1,0.4,0.1,0.9c0,0,0.3,2.3,2.7,2.4c0.7-0.1,1-0.2,1.3-0.3c1.3-0.7,1.5-2.1,1.5-2.1h-1.2
		c-0.7,1.6-2.1,1.1-2.1,1.1l0.8-3.7c1.5,0,1.6,1.5,1.6,1.5h1.3c0,0,0.1-1.5-1.4-2.4c-0.3-0.2-0.8-0.3-1.3-0.3
		C40.1,56.1,37.4,55.9,36.9,59.1"/>
	<polygon class="st0" points="47.6,56.5 47.4,57.6 45.3,57.6 45,58.8 47.2,58.8 46.9,59.9 44.8,59.9 44.6,61.1 46.7,61.1 46.4,62.2 
		42.2,62.2 43.4,56.5 	"/>
	<path class="st0" d="M46.6,61.9c0-0.2,0.2-0.3,0.3-0.3s0.3,0.1,0.3,0.3s-0.1,0.3-0.3,0.3S46.6,62.1,46.6,61.9 M47,62.2
		c0.1,0,0.2-0.1,0.2-0.2c0-0.1-0.1-0.2-0.2-0.2c-0.1,0-0.2,0.1-0.2,0.2C46.7,62.1,46.8,62.2,47,62.2 M46.9,62.1L46.9,62.1l-0.1-0.3
		H47c0.1,0,0.1,0,0.1,0.1s0,0.1-0.1,0.1l0.1,0.2H47L47,62h-0.1L46.9,62.1L46.9,62.1z M47,61.9C47,61.9,47,61.9,47,61.9
		c0.1-0.1,0-0.1,0-0.1h-0.1L47,61.9L47,61.9L47,61.9z"/>
	<path class="st1" d="M47.3,60.6c-0.1,0-0.2,0.1-0.2,0.2c0,0.1,0.1,0.2,0.2,0.2c0.1,0,0.2-0.1,0.2-0.2
		C47.6,60.8,47.5,60.6,47.3,60.6z M47.4,61.1l-0.1-0.1h-0.1v0.1v0h-0.1v-0.3h0.1c0.1,0,0.1,0,0.1,0.1c0,0.1,0,0.1-0.1,0.1L47.4,61.1
		L47.4,61.1L47.4,61.1z"/>
	<path class="st1" d="M47.4,60.8C47.4,60.8,47.4,60.8,47.4,60.8l-0.1-0.1v0.1L47.4,60.8C47.4,60.9,47.4,60.9,47.4,60.8z"/>
	<g>
		<path class="st1" d="M28.7,42c11.6,0,21-9.4,21-21s-9.4-21-21-21s-21,9.4-21,21S17,42,28.7,42z"/>
		<path class="st1" d="M59,47.9c-2.8-2.3-10.9-7.9-20.3-5.8l-10,15.3l-9.7-15c-9-2.1-16.6,4.9-19,7.4C2.7,54.9,4.3,64.3,5.3,74h47.2
			C53.7,63.3,55.7,52.9,59,47.9z M27.8,66.1c-0.8,0-1.4-0.6-1.4-1.4c0-0.8,0.6-1.4,1.4-1.4s1.4,0.6,1.4,1.4
			C29.2,65.4,28.5,66.1,27.8,66.1z M34.4,61.6l2.4-3.6l0.7,3.6H34.4z M38.1,61.6l-0.8-4.4l1.8-2.7l1.3,7.1H38.1z M44.1,61.4
			c-0.3,0.2-0.6,0.3-1.3,0.3c-2.4-0.1-2.7-2.4-2.7-2.4c-0.1-0.5-0.1-0.7-0.1-0.9l0,0c0.5-3.2,3.2-3,3.2-3c0.5,0,1,0.1,1.3,0.3
			c1.4,0.9,1.4,2.4,1.4,2.4h-1.3c0,0,0-1.4-1.5-1.4l-0.8,3.7c0,0,1.4,0.5,2.1-1.1h1.2C45.7,59.4,45.4,60.8,44.1,61.4z M50.1,61.6
			c-0.2,0-0.3-0.1-0.3-0.3c0-0.2,0.2-0.3,0.3-0.3s0.3,0.1,0.3,0.3C50.4,61.5,50.2,61.6,50.1,61.6z M48.4,57.1l-0.2,1.1h2.1L50,59.4
			h-2.1l-0.2,1.1h2.1l-0.3,1.1h-4.2l1.2-5.7h4.2l-0.2,1.1L48.4,57.1L48.4,57.1z"/>
	</g>
	<g>
		<path class="st1" d="M43.6,39.2c8,0.2,14.3,4.6,17,6.8l1.8,1.4l-1.3,1.9c-0.7,1-1.5,2.7-2.3,5.1c7.5-3.8,16-5.9,25-5.9
			c17,0,32.2,7.5,42.5,19.4l-20,20h57.1V30.8l-21,21c-14.4-16-35.4-26-58.7-26c-12.9,0-25,3.1-35.8,8.5
			C46.8,36.2,45.3,37.8,43.6,39.2z"/>
		<path class="st1" d="M104.3,157.4l-0.8-1.6l1.2-1.3c0.1-0.1,0.3-0.3,0.5-0.5c-6.2,2.4-12.9,3.7-20,3.7c-17,0-32.2-7.5-42.5-19.4
			l20-20H5.5v57.1l21-21c14.4,16,35.4,26,58.7,26c8.3,0,16.2-1.3,23.7-3.6C107.4,165.4,105.6,160,104.3,157.4z"/>
	</g>
	<g>
		<path class="st1" d="M135.1,148.5c11.6,0,21-9.4,21-21c0-11.6-9.4-21-21-21s-21,9.4-21,21S123.5,148.5,135.1,148.5z"/>
		<path class="st1" d="M145.8,148.5l-23.4,0c-0.2,0-0.3,0-0.5,0h-0.3l0,0c-7.2,0.2-13.1,5.6-15.1,7.7c2.7,5.1,4.3,14.5,5.3,24.2H159
			c1.2-10.7,3.2-21.1,6.5-26C162.7,152.1,155,146.8,145.8,148.5z"/>
	</g>
</g>
</svg>
