<svg xmlns="http://www.w3.org/2000/svg" width="158.168" height="148.513" viewBox="0 0 158.168 148.513">
  <path id="icons8-megaphone" d="M118.867,0A7.613,7.613,0,0,0,111.6,5.611L14.384,34.775a7.54,7.54,0,0,0-6.8-4.426A7.628,7.628,0,0,0,0,37.936V53.111A7.628,7.628,0,0,0,7.587,60.7a7.6,7.6,0,0,0,6.8-4.268l20.154,7.034-1.976,5.216v.079a11.28,11.28,0,0,0,7.113,14.226l10.512,3.557a11.28,11.28,0,0,0,14.226-7.113l1.66-4.979L111.6,90.415a7.545,7.545,0,0,0,14.858-1.9V7.587A7.628,7.628,0,0,0,118.867,0Zm0,5.058A2.5,2.5,0,0,1,121.4,7.587V88.518a2.53,2.53,0,0,1-5.058.079V7.35A2.5,2.5,0,0,1,118.867,5.058Zm-7.587,5.928V84.962L15.175,51.293V39.833ZM7.587,35.407A2.5,2.5,0,0,1,10.116,37.7a1.9,1.9,0,0,1,0,.237V53.348a2.535,2.535,0,0,1-5.058-.237V37.936A2.5,2.5,0,0,1,7.587,35.407ZM39.28,65.124l21.972,7.666-1.66,4.979a6.15,6.15,0,0,1-7.824,3.952L41.256,78.244a6.2,6.2,0,0,1-3.873-7.824c.01-.03-.01-.049,0-.079Z" transform="matrix(0.848, -0.53, 0.53, 0.848, 0, 67.011)" fill="#d40029"/>
</svg>
