<?xml version="1.0" encoding="utf-8"?>
<!-- Generator: Adobe Illustrator 27.2.0, SVG Export Plug-In . SVG Version: 6.00 Build 0)  -->
<svg version="1.1" id="Layer_2_00000037673269162243222400000002457169988420551845_"
	 xmlns="http://www.w3.org/2000/svg" xmlns:xlink="http://www.w3.org/1999/xlink" x="0px" y="0px" viewBox="0 0 320.1 208.4"
	 style="enable-background:new 0 0 320.1 208.4;" xml:space="preserve">
<style type="text/css">
	.st0{fill:#D40029;}
</style>
<g>
	<path class="st0" d="M33.6,122.1C15,122.1,0,137.1,0,155.7s15,33.6,33.6,33.6s33.6-15,33.6-33.6C67.1,137.1,52.1,122.1,33.6,122.1z
		 M39,137.9c0.5-0.3,1.2-0.1,1.5,0.4c2.7,4.3,6.9,5.3,6.9,5.3c0.6,0.1,0.9,0.7,0.8,1.3c-0.1,0.5-0.6,0.8-1,0.8h0c-0.1,0-0.1,0-0.2,0
		c-0.2,0-5.1-1.2-8.3-6.3C38.3,138.9,38.5,138.2,39,137.9z M38,147.6c0.5-0.4,1.2-0.3,1.5,0.2c3.4,4.5,7.4,2.6,7.6,2.5
		c0.5-0.3,1.2-0.1,1.4,0.5c0.3,0.5,0.1,1.2-0.5,1.4c-0.1,0-1.4,0.7-3.3,0.7l0,0c0,0-0.1,0-0.1,0c-1.8,0-4.5-0.7-6.8-3.8
		C37.4,148.6,37.5,147.9,38,147.6z M19.8,143.6c0.1,0,4.3-1,6.9-5.3c0.3-0.5,1-0.7,1.5-0.4s0.7,1,0.4,1.5c-3.2,5.1-8.1,6.3-8.3,6.3
		c-0.1,0-0.2,0-0.2,0l0,0c-0.5,0-0.9-0.3-1-0.8C18.8,144.3,19.2,143.7,19.8,143.6z M18.7,150.8c0.3-0.5,0.9-0.7,1.4-0.5
		c0.2,0.1,4.2,2,7.6-2.5c0.4-0.5,1-0.6,1.5-0.2s0.6,1,0.2,1.5c-2.3,3.1-5,3.8-6.8,3.8c-0.1,0-0.1,0-0.1,0c-1.9,0-3.3-0.7-3.3-0.7
		C18.6,151.9,18.4,151.3,18.7,150.8z M50,175.9c-0.4,0.2-0.8,0.2-1.1,0c-4.1-2.7-9.5-4.2-15.3-4.2s-11.1,1.5-15.3,4.2
		c-0.2,0.1-0.4,0.2-0.6,0.2c-0.2,0-0.4-0.1-0.6-0.1c-0.4-0.2-0.6-0.6-0.5-1c0.4-4.2,2.3-8.1,5.4-11c3.1-2.9,7.2-4.5,11.5-4.5
		s8.3,1.6,11.5,4.5c3.1,2.9,5.1,6.8,5.4,11C50.5,175.3,50.3,175.7,50,175.9z"/>
	<path class="st0" d="M241.9,35.8c-18.5,0-33.6,15-33.6,33.6s15,33.6,33.6,33.6s33.6-15,33.6-33.6C275.5,50.8,260.5,35.8,241.9,35.8
		z M226.1,60.3c-0.2,0.3-0.5,0.4-0.9,0.4c-0.2,0-0.4-0.1-0.6-0.2c-0.5-0.4-0.6-1-0.2-1.5c0.1-0.2,2.8-3.9,7.2-4.8
		c0.6-0.1,1.2,0.2,1.3,0.8c0.1,0.6-0.2,1.2-0.8,1.3C228.5,57.1,226.2,60.2,226.1,60.3z M230.5,64.7c0-2.2,1.1-4,2.5-4s2.5,1.8,2.5,4
		c0,2.2-1.1,4-2.5,4S230.5,66.9,230.5,64.7z M251.7,83.4c-1.9,3.7-5.7,5.9-9.8,5.9s-7.8-2.3-9.8-5.9c-0.3-0.5,0-1.2,0.6-1.4
		c0.6-0.2,1.4,0,1.6,0.5c1.5,2.9,4.4,4.7,7.5,4.7c3.1,0,6-1.8,7.5-4.7c0.2-0.4,0.6-0.6,1.1-0.6c0.2,0,0.4,0,0.5,0.1
		C251.7,82.2,252,82.8,251.7,83.4z M250.8,68.7c-1.4,0-2.5-1.8-2.5-4c0-2.2,1.1-4,2.5-4s2.5,1.8,2.5,4
		C253.3,66.9,252.2,68.7,250.8,68.7z M259.2,60.5c-0.2,0.1-0.4,0.2-0.6,0.2h0c-0.3,0-0.7-0.1-0.9-0.4c0,0-2.4-3.2-6-4
		c-0.6-0.1-0.9-0.7-0.8-1.3c0.1-0.6,0.7-0.9,1.3-0.8c4.4,1,7.1,4.7,7.2,4.8C259.8,59.5,259.6,60.1,259.2,60.5z"/>
	<path class="st0" d="M155.5,0c-18.5,0-33.6,15-33.6,33.6s15,33.6,33.6,33.6s33.6-15,33.6-33.6C189.1,15,174,0,155.5,0z M163.3,16.6
		c1.6,0,2.9,3.5,2.9,7.7S165,32,163.3,32s-2.9-3.5-2.9-7.7S161.7,16.6,163.3,16.6z M147.6,16.6c1.6,0,2.9,3.5,2.9,7.7
		s-1.3,7.7-2.9,7.7s-2.9-3.5-2.9-7.7S146,16.6,147.6,16.6z M170,48.3h-29c-0.6,0-1.1-0.5-1.1-1.1c0-0.6,0.5-1.1,1.1-1.1h29
		c0.6,0,1.1,0.5,1.1,1.1S170.6,48.3,170,48.3z"/>
	<path class="st0" d="M183.9,171.3c1.4-3.7,2.2-7.7,2.2-11.9s-0.8-8.2-2.2-11.9l78.1,11.9L183.9,171.3L183.9,171.3L183.9,171.3z"/>
	<path class="st0" d="M179.8,159.4c0,14.2-11.5,25.7-25.7,25.7c-14.2,0-25.7-11.5-25.7-25.7c0-14.2,11.5-25.7,25.7-25.7
		S179.8,145.2,179.8,159.4L179.8,159.4z"/>
	<path class="st0" d="M247.8,208.2h2.9l-4.9-13.1h-2.5l-4.9,13.1h2.9l0.9-2.7h4.7L247.8,208.2L247.8,208.2L247.8,208.2z
		 M244.5,198.4l1.6,4.9h-3.3L244.5,198.4L244.5,198.4z M251.9,195.1v13.1h2.7v-3.6l-0.3-6.2l3.5,9.7h1.8l3.5-9.7l-0.3,6.2v3.6h2.7
		v-13.1h-3.5l-3.3,9.5l-3.4-9.5L251.9,195.1L251.9,195.1z M276.2,208.2h2.9l-4.9-13.1h-2.5l-4.9,13.1h2.9l0.9-2.7h4.7L276.2,208.2
		L276.2,208.2L276.2,208.2z M273,198.4l1.6,4.9h-3.3L273,198.4L273,198.4z M289.6,196.6v-1.5h-9.8v2.2h6.4l-6.5,9.3v1.6h9.9V206
		h-6.6L289.6,196.6L289.6,196.6L289.6,196.6z M294.3,195.1h-2.7v13.1h2.7V195.1L294.3,195.1z M307.4,195.1h-2.7v8.6l-5.2-8.6h-2.7
		v13.1h2.7v-8.6l5.2,8.6h2.7L307.4,195.1L307.4,195.1L307.4,195.1z M320.1,201.3H315v2h2.5v2.2c-0.4,0.4-1.2,0.6-2.2,0.6
		s-1.8-0.4-2.3-1c-0.5-0.7-0.8-1.7-0.8-3.1v-0.8c0-1.4,0.2-2.4,0.7-3.1c0.5-0.7,1.2-1,2.1-1c0.7,0,1.3,0.2,1.7,0.5
		c0.4,0.4,0.7,0.9,0.8,1.6h2.6c-0.2-1.4-0.7-2.5-1.6-3.2c-0.9-0.7-2.1-1.1-3.6-1.1c-1.1,0-2.1,0.3-2.9,0.8s-1.5,1.2-1.9,2.2
		c-0.4,0.9-0.7,2.1-0.7,3.4v0.9c0,1.3,0.2,2.4,0.7,3.3c0.5,0.9,1.1,1.7,2,2.2c0.9,0.5,1.8,0.7,3,0.7s2.1-0.2,2.9-0.5
		c0.9-0.3,1.6-0.8,2.1-1.4L320.1,201.3L320.1,201.3L320.1,201.3z"/>
	<path class="st0" d="M69,35.7c-18.5,0-33.6,15-33.6,33.6s15,33.6,33.6,33.6s33.6-15,33.6-33.6C102.6,50.8,87.6,35.7,69,35.7z
		 M50,59.1C50,59.1,50,59.1,50,59.1c-0.3,0-0.5,0-0.5,0c-0.6-0.1-1-0.6-1-1.2c0.1-0.6,0.6-1,1.2-1c0.2,0,4.5,0.3,7.6-4.1
		c0.3-0.5,1-0.6,1.5-0.3c0.5,0.3,0.6,1,0.3,1.5C55.8,58.7,51.5,59.1,50,59.1C50,59.1,50,59.1,50,59.1C50,59.1,50,59.1,50,59.1z
		 M54.8,73.6c-0.4,0-0.8-0.2-1-0.6c-0.3-0.5-0.1-1.2,0.5-1.4l6.9-3.5l-6.5-3.3c-0.5-0.3-0.7-0.9-0.5-1.4c0.3-0.5,0.9-0.7,1.5-0.5
		l8.3,4.3c0.4,0.2,0.6,0.6,0.6,1s-0.2,0.8-0.6,1l-8.8,4.5C55.1,73.6,55,73.6,54.8,73.6z M77,88c-0.5,0.2-1.2,0-1.4-0.5
		c-1.3-2.9-3.8-4.7-6.5-4.7c-2.7,0-5.2,1.8-6.5,4.7c-0.2,0.4-0.6,0.6-1,0.6c-0.1,0-0.3,0-0.4-0.1c-0.5-0.2-0.8-0.9-0.5-1.4
		c1.7-3.7,4.9-5.9,8.5-5.9s6.8,2.3,8.5,5.9C77.7,87.2,77.5,87.8,77,88z M84,73c-0.2,0.4-0.6,0.6-1,0.6c-0.2,0-0.3,0-0.5-0.1L73.8,69
		c-0.4-0.2-0.6-0.6-0.6-1c0-0.4,0.2-0.8,0.6-1l8.3-4.3c0.5-0.3,1.2-0.1,1.4,0.5c0.3,0.5,0.1,1.2-0.5,1.4l-6.5,3.3l6.9,3.5
		C84.1,71.8,84.3,72.5,84,73z M88.5,59.1c0,0-0.2,0-0.5,0l0,0c-1.5,0-5.8-0.4-9-5c-0.3-0.5-0.2-1.2,0.3-1.5c0.5-0.3,1.2-0.2,1.5,0.3
		c3.1,4.4,7.4,4.1,7.6,4.1c0.6-0.1,1.1,0.4,1.2,1S89.1,59,88.5,59.1z"/>
	<path class="st0" d="M277.6,122.1c-18.4,0-33.3,14.8-33.6,33.1l27.8,4.2l-26.8,4.1c3.5,14.7,16.8,25.7,32.6,25.7
		c18.5,0,33.6-15,33.6-33.6C311.2,137.1,296.1,122.1,277.6,122.1z M282.3,148.8c0.9-2.5,2.5-3.9,4.6-3.9s3.8,1.4,4.6,3.9
		c0.6,1.7,0.7,3.4,0.7,3.5c0,0.6-0.4,1.1-1,1.1h0h0c-0.6,0-1.1-0.5-1.1-1c0,0-0.2-5.4-3.2-5.4s-3.2,5.3-3.2,5.4c0,0.6-0.5,1.1-1.1,1
		c-0.6,0-1.1-0.5-1-1.1C281.7,152.2,281.7,150.5,282.3,148.8z M271.4,152.4c0,0-0.2-5.4-3.2-5.4s-3.2,5.3-3.2,5.4
		c0,0.6-0.5,1.1-1.1,1c-0.6,0-1.1-0.5-1-1.1c0-0.1,0.1-1.8,0.7-3.5c0.9-2.5,2.5-3.9,4.6-3.9s3.8,1.4,4.6,3.9
		c0.6,1.7,0.7,3.4,0.7,3.5c0,0.6-0.4,1.1-1,1.1h0h0C271.9,153.4,271.4,152.9,271.4,152.4z M277.6,177.4c-8.3,0-15.1-6.4-15.8-14.5
		c4.1,2.7,9.7,4.4,15.8,4.4s11.7-1.7,15.9-4.4C292.7,171.1,285.9,177.4,277.6,177.4z"/>
</g>
</svg>
