<?xml version="1.0" encoding="utf-8"?>
<!-- Generator: Adobe Illustrator 27.2.0, SVG Export Plug-In . SVG Version: 6.00 Build 0)  -->
<svg version="1.1" id="Layer_2_00000097502643136116847770000010975817223824398239_"
	 xmlns="http://www.w3.org/2000/svg" xmlns:xlink="http://www.w3.org/1999/xlink" x="0px" y="0px" viewBox="0 0 189.4 177"
	 style="enable-background:new 0 0 189.4 177;" xml:space="preserve">
<style type="text/css">
	.st0{fill:#D40029;}
</style>
<g id="Inventory_Mgmt">
	<g id="Ordering">
		<g>
			<path class="st0" d="M2.2,2.2C0.8,3.5,0,5.5,0,7.4v122.7c0,1.9,0.8,3.9,2.2,5.2c1.4,1.4,3.3,2.2,5.2,2.2H182c2,0,3.9-0.8,5.2-2.2
				c1.4-1.4,2.2-3.3,2.2-5.2V7.4c0-2-0.8-3.9-2.2-5.2l0,0C185.9,0.8,183.9,0,182,0H7.4C5.5,0,3.6,0.8,2.2,2.2L2.2,2.2z M14.9,14.9
				h159.7v107.8H14.9V14.9z"/>
			<path class="st0" d="M69.6,146.8v15.5H57.3c-8,0-14.6,6.6-14.6,14.6c0,0.1,103.9,0.1,103.9,0c0-8-6.5-14.6-14.6-14.6h-12.2v-15.5
				H69.6z"/>
			<path class="st0" d="M145.9,82.7l6.3-1.6c0.8-0.2,1.4-0.9,1.6-1.7c0.1-0.8-0.3-1.7-1-2.1l-24.4-15c-0.7-0.5-1.7-0.4-2.4,0.1
				c-0.7,0.5-1,1.4-0.8,2.2l6.9,27.6c0.2,0.8,0.9,1.4,1.7,1.6c0.1,0,0.2,0,0.3,0c0.7,0,1.4-0.4,1.8-1l3.4-5.5l8,11.1
				c0.3,0.5,0.8,0.8,1.4,0.9c0.1,0,0.2,0,0.3,0c0.4,0,0.9-0.1,1.2-0.4l2.9-2.1c0.4-0.3,0.8-0.8,0.9-1.4c0.1-0.6,0-1.1-0.4-1.6
				L145.9,82.7L145.9,82.7z"/>
			<path class="st0" d="M100.6,98.5c0-5.8-4.7-10.5-10.5-10.5s-10.5,4.7-10.5,10.5s4.7,10.5,10.5,10.5
				C95.9,108.9,100.6,104.3,100.6,98.5z"/>
			<path class="st0" d="M58.3,108.9c5.8,0,10.5-4.7,10.5-10.5S64.1,88,58.3,88s-10.5,4.7-10.5,10.5S52.5,108.9,58.3,108.9z"/>
			<path class="st0" d="M110.7,39.3c-0.9-1.2-2.3-2-3.9-2H50.8l-1.7-8.1c-0.5-2.2-2.4-3.8-4.6-3.8H30.6c-2.6,0-4.7,2.1-4.7,4.8
				S28,35,30.6,35h10L50,79.3c0.5,2.2,2.4,3.8,4.6,3.8h40.1c2,0,3.9-1.3,4.5-3.2l12.1-36.2C111.9,42.2,111.6,40.6,110.7,39.3
				L110.7,39.3z M100.3,46.9l-2.9,8.5H54.6l-1.8-8.5H100.3L100.3,46.9z M58.5,73.5l-1.8-8.7h37.6l-2.9,8.7H58.5L58.5,73.5z"/>
		</g>
	</g>
</g>
</svg>
