<svg xmlns="http://www.w3.org/2000/svg" width="123.889" height="113.978" viewBox="0 0 123.889 113.978">
  <path id="icons8-user_groups" d="M42.122,2a14.855,14.855,0,0,0-8.75,26.868A19.917,19.917,0,0,0,28.03,32.74a17.061,17.061,0,0,0-5.73-1.007,17.351,17.351,0,0,0-9.447,31.9A22.324,22.324,0,0,0,0,83.767v11.15A2.472,2.472,0,0,0,1.007,96.93a19.021,19.021,0,0,0,5.11,2.245A56.917,56.917,0,0,0,22.3,101.111a56.917,56.917,0,0,0,16.183-1.936c.436-.126.784-.252,1.161-.387v11a2.472,2.472,0,0,0,1.007,2.013,19.021,19.021,0,0,0,5.11,2.245,56.917,56.917,0,0,0,16.183,1.936,56.917,56.917,0,0,0,16.183-1.936,19.021,19.021,0,0,0,5.11-2.245,2.472,2.472,0,0,0,1.007-2.013v-11c.377.136.726.261,1.161.387a56.917,56.917,0,0,0,16.183,1.936,56.917,56.917,0,0,0,16.183-1.936,19.021,19.021,0,0,0,5.11-2.245,2.472,2.472,0,0,0,1.007-2.013V83.767a22.324,22.324,0,0,0-12.853-20.132,17.351,17.351,0,0,0-9.447-31.9,17.14,17.14,0,0,0-6.117,1.161,19.969,19.969,0,0,0-5.42-4.026,14.867,14.867,0,1,0-17.5,0A19.735,19.735,0,0,0,61.712,43.58a19.678,19.678,0,0,0-10.84-14.712A14.855,14.855,0,0,0,42.122,2Zm0,4.956a9.911,9.911,0,1,1-9.911,9.911A9.869,9.869,0,0,1,42.122,6.956Zm39.18,0a9.911,9.911,0,1,1-9.911,9.911A9.869,9.869,0,0,1,81.3,6.956ZM42.122,31.733A14.688,14.688,0,0,1,56.989,46.6v.774A17.313,17.313,0,0,0,52.5,78.5a22.517,22.517,0,0,0-7.9,6.272V83.767A22.324,22.324,0,0,0,31.747,63.635a17.318,17.318,0,0,0,.929-28.417A14.284,14.284,0,0,1,42.122,31.733Zm39.18,0a14.288,14.288,0,0,1,9.679,3.639,17.338,17.338,0,0,0,1.161,28.262A22.324,22.324,0,0,0,79.289,83.767v1.007a22.517,22.517,0,0,0-7.9-6.272,17.331,17.331,0,0,0-4.956-31.282V46.6A14.688,14.688,0,0,1,81.3,31.733Zm-59,4.956A12.389,12.389,0,1,1,9.911,49.078,12.348,12.348,0,0,1,22.3,36.689Zm79.289,0a12.386,12.386,0,1,1-6.272,1.7c.019-.01.058.01.077,0a2.456,2.456,0,0,0,1.007-.465c.087-.039.145-.116.232-.155a1.155,1.155,0,0,0,.155-.077A12.211,12.211,0,0,1,101.589,36.689ZM61.945,51.556A12.389,12.389,0,1,1,49.556,63.945,12.351,12.351,0,0,1,61.945,51.556ZM22.3,66.422A17.378,17.378,0,0,1,39.645,83.767v9.524a6.91,6.91,0,0,1-2.555,1.084A51.749,51.749,0,0,1,22.3,96.156,51.749,51.749,0,0,1,7.511,94.375a6.91,6.91,0,0,1-2.555-1.084V83.767A17.378,17.378,0,0,1,22.3,66.422Zm79.289,0a17.378,17.378,0,0,1,17.344,17.344v9.524a6.91,6.91,0,0,1-2.555,1.084,51.749,51.749,0,0,1-14.789,1.781A51.749,51.749,0,0,1,86.8,94.375a6.91,6.91,0,0,1-2.555-1.084V83.767A17.378,17.378,0,0,1,101.589,66.422ZM61.945,81.289A17.378,17.378,0,0,1,79.289,98.633v9.524a6.91,6.91,0,0,1-2.555,1.084,51.749,51.749,0,0,1-14.789,1.781,51.749,51.749,0,0,1-14.789-1.781,6.91,6.91,0,0,1-2.555-1.084V98.633A17.378,17.378,0,0,1,61.945,81.289Z" transform="translate(0 -2)" fill="#d40029"/>
</svg>
