<svg xmlns="http://www.w3.org/2000/svg" width="21.028" height="21.03" viewBox="0 0 21.028 21.03">
  <path id="Path_582" data-name="Path 582" d="M69.156,72.883h-.022c-3.592-.118-7.8-3.6-10.7-6.5s-6.385-7.111-6.5-10.686c-.041-1.255,3.038-3.486,3.069-3.508a1.481,1.481,0,0,1,2.05.146c.246.342,2.58,3.878,2.834,4.279a1.684,1.684,0,0,1-.1,1.658c-.181.345-.782,1.4-1.064,1.895a25.118,25.118,0,0,0,2.771,3.157,25.163,25.163,0,0,0,3.159,2.772c.493-.282,1.55-.883,1.895-1.064a1.691,1.691,0,0,1,1.649-.108c.429.263,3.956,2.608,4.281,2.834a1.226,1.226,0,0,1,.484.9,1.769,1.769,0,0,1-.334,1.152C72.6,69.842,70.4,72.883,69.156,72.883Z" transform="translate(-51.937 -51.853)" fill="#fff"/>
</svg>
