<svg xmlns="http://www.w3.org/2000/svg" width="107.24" height="102.398" viewBox="0 0 107.24 102.398">
  <path id="icons8-online_store" d="M12.749,4a7.349,7.349,0,0,0-7.312,7.312v9.535C5.346,21.292,3,32.758,3,39.341a15.868,15.868,0,0,0,2.428,9.145l.01.014V99.054a7.349,7.349,0,0,0,7.312,7.312h6.9a2.438,2.438,0,0,0,.795,0H41.587a2.438,2.438,0,0,0,.795,0h58.109a7.349,7.349,0,0,0,7.312-7.312V48.5l.01-.014a15.868,15.868,0,0,0,2.428-9.145c0-6.582-2.346-18.049-2.437-18.494V11.312A7.349,7.349,0,0,0,100.491,4Zm0,4.875h87.742a2.4,2.4,0,0,1,2.437,2.437v7.312H74.057a2.206,2.206,0,0,0-.766,0H57a2.206,2.206,0,0,0-.766,0H39.935a2.206,2.206,0,0,0-.766,0H10.312V11.312A2.4,2.4,0,0,1,12.749,8.875Zm2.437,2.437a2.437,2.437,0,1,0,2.437,2.437A2.437,2.437,0,0,0,15.186,11.312Zm7.312,0a2.437,2.437,0,1,0,2.437,2.437A2.437,2.437,0,0,0,22.5,11.312Zm7.312,0a2.437,2.437,0,1,0,2.437,2.437A2.437,2.437,0,0,0,29.81,11.312ZM10,23.5H20.061V45.158a8.316,8.316,0,0,1-6.093,2.713,4.815,4.815,0,0,1-4.532-2.166,11.516,11.516,0,0,1-1.561-6.365C7.875,34.533,9.585,25.72,10,23.5Zm14.933,0H37.122V45.158a8.213,8.213,0,0,1-12.186.014ZM42,23.5H54.183V45.158A8.213,8.213,0,0,1,42,45.172Zm17.061,0H71.244V45.158a8.213,8.213,0,0,1-12.186.014Zm17.061,0H88.3V45.172a8.227,8.227,0,0,1-12.186,0Zm17.061,0h10.059c.417,2.221,2.128,11.035,2.128,15.842a11.516,11.516,0,0,1-1.561,6.365,4.815,4.815,0,0,1-4.532,2.166,8.336,8.336,0,0,1-6.093-2.7ZM22.5,49.609a13.167,13.167,0,0,0,17.061,0,13.167,13.167,0,0,0,17.061,0,13.175,13.175,0,0,0,17.061,0,13.182,13.182,0,0,0,17.061,0,13.259,13.259,0,0,0,8.531,3.132,11.107,11.107,0,0,0,3.656-.614V99.054a2.4,2.4,0,0,1-2.437,2.437H44.434V60.058H17.624v41.434H12.749a2.4,2.4,0,0,1-2.437-2.437V52.132a11.107,11.107,0,0,0,3.656.614A13.251,13.251,0,0,0,22.5,49.609ZM51.746,60.058V94.179H95.617V60.058ZM22.5,64.932H39.559v36.559H22.5Zm34.122,0H90.742V89.3H56.62Z" transform="translate(-3 -4)" fill="#d40029"/>
</svg>
