<svg xmlns="http://www.w3.org/2000/svg" width="28" height="35" viewBox="0 0 28 35"><g transform="translate(0.5 0.5)" fill="#fff" stroke-linecap="round"><path d="M 24.86844062805176 34.24980163574219 L 2.131360769271851 34.24980163574219 C 1.498680830001831 34.24980163574219 0.9012808203697205 33.99632263183594 0.4492008090019226 33.53605270385742 C -0.001689182128757238 33.07699203491211 -0.2499991804361343 32.47103118896484 -0.2499991804361343 31.82981109619141 L -0.2499991804361343 14.46792125701904 C -0.2499991804361343 13.82669067382812 -0.001679182169027627 13.22073078155518 0.4492008090019226 12.76168060302734 C 0.9012808203697205 12.30140113830566 1.498680830001831 12.0479211807251 2.131360769271851 12.0479211807251 L 4.72381067276001 12.0479211807251 L 4.72381067276001 8.680621147155762 C 4.72381067276001 6.292760848999023 5.635241031646729 4.049740791320801 7.290190696716309 2.364770889282227 C 8.946351051330566 0.6786108016967773 11.15167045593262 -0.2499991804361343 13.49990081787109 -0.2499991804361343 C 15.35511112213135 -0.2499991804361343 17.1274299621582 0.3297408223152161 18.6252613067627 1.426540851593018 C 20.09067153930664 2.499590873718262 21.18113136291504 3.979230880737305 21.77875137329102 5.70551061630249 L 21.89362144470215 6.037300586700439 L 21.54251098632812 6.037300586700439 L 20.02424049377441 6.037300586700439 L 19.85857009887695 6.037300586700439 L 19.79401016235352 5.884730815887451 C 19.27202033996582 4.651200771331787 18.4157600402832 3.605800867080688 17.31780052185059 2.861530780792236 C 16.19360160827637 2.09946084022522 14.87340068817139 1.696660876274109 13.49990081787109 1.696660876274109 C 11.65463066101074 1.696660876274109 9.929571151733398 2.418340921401978 8.642500877380371 3.728770732879639 C 7.35421085357666 5.040390968322754 6.644721031188965 6.798990726470947 6.644721031188965 8.680621147155762 L 6.644721031188965 12.0479211807251 L 18.47372055053711 12.0479211807251 L 24.86844062805176 12.0479211807251 C 25.50112152099609 12.0479211807251 26.09852027893066 12.30140113830566 26.55060005187988 12.76168060302734 C 27.00148010253906 13.22073078155518 27.24980163574219 13.82669067382812 27.24980163574219 14.46792125701904 L 27.24980163574219 31.82981109619141 C 27.24980163574219 32.47103118896484 27.00149154663086 33.07699203491211 26.55060005187988 33.53605270385742 C 26.09852027893066 33.99632263183594 25.50112152099609 34.24980163574219 24.86844062805176 34.24980163574219 Z M 2.131360769271851 13.99459075927734 C 1.877470850944519 13.99459075927734 1.670910835266113 14.2069206237793 1.670910835266113 14.46792125701904 L 1.670910835266113 31.82981109619141 C 1.670910835266113 32.09081268310547 1.877470850944519 32.30314254760742 2.131360769271851 32.30314254760742 L 24.86844062805176 32.30314254760742 C 25.1223316192627 32.30314254760742 25.32889175415039 32.09081268310547 25.32889175415039 31.82981109619141 L 25.32889175415039 14.46792125701904 C 25.32889175415039 14.2069206237793 25.1223316192627 13.99459075927734 24.86844062805176 13.99459075927734 L 2.131360769271851 13.99459075927734 Z M 13.49990081787109 27.01584053039551 C 12.5785608291626 27.01584053039551 11.8289909362793 26.25472068786621 11.8289909362793 25.31918144226074 L 11.8289909362793 23.39631080627441 C 11.37604522705078 22.96853256225586 11.11854076385498 22.3577880859375 11.11854076385498 21.70188140869141 C 11.11854076385498 21.04144096374512 11.36166095733643 20.43020057678223 11.80311107635498 19.98075103759766 C 12.24577045440674 19.53008079528809 12.84836101531982 19.28188133239746 13.49990081787109 19.28188133239746 C 14.15144062042236 19.28188133239746 14.75403118133545 19.53008079528809 15.19669055938721 19.98075103759766 C 15.63814067840576 20.43021011352539 15.88126087188721 21.04145050048828 15.88126087188721 21.70188140869141 C 15.88126087188721 22.35777854919434 15.62374782562256 22.96853828430176 15.17081069946289 23.39632034301758 L 15.17081069946289 25.31918144226074 C 15.17081069946289 26.25472068786621 14.42124080657959 27.01584053039551 13.49990081787109 27.01584053039551 Z" stroke="none"/><path d="M 24.86844062805176 33.99980163574219 C 25.43348121643066 33.99980163574219 25.96755027770996 33.77289199829102 26.37224006652832 33.36087036132812 C 26.77693176269531 32.9488410949707 26.99980163574219 32.40509033203125 26.99980163574219 31.82981109619141 L 26.99980163574219 14.46792125701904 C 26.99980163574219 13.8926305770874 26.77693176269531 13.34888076782227 26.37224006652832 12.93686103820801 C 25.96755027770996 12.52483081817627 25.43348121643066 12.2979211807251 24.86844062805176 12.2979211807251 L 18.47372055053711 12.2979211807251 L 6.394721031188965 12.2979211807251 L 6.394721031188965 8.680621147155762 C 6.394721031188965 6.733070850372314 7.129650592803955 4.912250995635986 8.464140892028809 3.553590774536133 C 9.798610687255859 2.194910764694214 11.58702087402344 1.446660876274109 13.49990081787109 1.446660876274109 C 14.9236011505127 1.446660876274109 16.29231071472168 1.86435079574585 17.45807075500488 2.654590845108032 C 18.59630012512207 3.426150798797607 19.48343086242676 4.509280681610107 20.02424049377441 5.787300586700439 L 21.54251098632812 5.787300586700439 C 20.96159172058105 4.109280586242676 19.9017505645752 2.671110868453979 18.47756004333496 1.628240823745728 C 17.02288055419922 0.5630407929420471 15.30163097381592 8.178710686479462e-07 13.49990081787109 8.178710686479462e-07 C 11.2192907333374 8.178710686479462e-07 9.07732105255127 0.9020408391952515 7.468550682067871 2.539950847625732 C 5.859800815582275 4.177880764007568 4.97381067276001 6.358680725097656 4.97381067276001 8.680621147155762 L 4.97381067276001 12.2979211807251 L 2.131360769271851 12.2979211807251 C 1.566320776939392 12.2979211807251 1.032250761985779 12.52483081817627 0.6275607943534851 12.93686103820801 C 0.2228708118200302 13.34888076782227 8.178710686479462e-07 13.8926305770874 8.178710686479462e-07 14.46792125701904 L 8.178710686479462e-07 31.82981109619141 C 8.178710686479462e-07 32.40509033203125 0.2228708118200302 32.9488410949707 0.6275607943534851 33.36087036132812 C 1.032250761985779 33.77289199829102 1.566320776939392 33.99980163574219 2.131360769271851 33.99980163574219 L 24.86844062805176 33.99980163574219 M 2.131360769271851 13.74459075927734 L 24.86844062805176 13.74459075927734 C 25.26019096374512 13.74459075927734 25.57889175415039 14.06907081604004 25.57889175415039 14.46792125701904 L 25.57889175415039 31.82981109619141 C 25.57889175415039 32.22866058349609 25.26019096374512 32.55314254760742 24.86844062805176 32.55314254760742 L 2.131360769271851 32.55314254760742 C 1.73961079120636 32.55314254760742 1.420910835266113 32.22866058349609 1.420910835266113 31.82981109619141 L 1.420910835266113 14.46792125701904 C 1.420910835266113 14.06907081604004 1.73961079120636 13.74459075927734 2.131360769271851 13.74459075927734 M 13.49990081787109 26.76584053039551 C 14.28339099884033 26.76584053039551 14.92081069946289 26.11687088012695 14.92081069946289 25.31918144226074 L 14.92081069946289 23.28461074829102 C 15.37231063842773 22.9025707244873 15.63126087188721 22.32568168640137 15.63126087188721 21.70188140869141 C 15.63126087188721 21.10737991333008 15.41358089447021 20.55835151672363 15.01833057403564 20.15593147277832 C 14.62307071685791 19.75351142883301 14.08381080627441 19.53188133239746 13.49990081787109 19.53188133239746 C 12.91598129272461 19.53188133239746 12.37673091888428 19.75351142883301 11.98147106170654 20.15593147277832 C 11.58621120452881 20.55835151672363 11.36854076385498 21.10737991333008 11.36854076385498 21.70188140869141 C 11.36854076385498 22.3255615234375 11.6275806427002 22.90265083312988 12.0789909362793 23.28461074829102 L 12.0789909362793 25.31918144226074 C 12.0789909362793 26.11687088012695 12.71641063690186 26.76584053039551 13.49990081787109 26.76584053039551 M 24.86844062805176 34.49980163574219 L 2.131360769271851 34.49980163574219 C 1.431060791015625 34.49980163574219 0.7703108191490173 34.21974945068359 0.27085080742836 33.71124267578125 C -0.2262391895055771 33.20513153076172 -0.4999991953372955 32.53696060180664 -0.4999991953372955 31.82981109619141 L -0.4999991953372955 14.46792125701904 C -0.4999991953372955 13.76076126098633 -0.2262391895055771 13.09259128570557 0.27085080742836 12.58649063110352 C 0.7703108191490173 12.07798099517822 1.431050777435303 11.7979211807251 2.131360769271851 11.7979211807251 L 4.47381067276001 11.7979211807251 L 4.47381067276001 8.680621147155762 C 4.47381067276001 6.226830959320068 5.410680770874023 3.921600818634033 7.111830711364746 2.189590930938721 C 8.815390586853027 0.455180823802948 11.08404064178467 -0.4999991953372955 13.49990081787109 -0.4999991953372955 C 15.40859127044678 -0.4999991953372955 17.23198127746582 0.09644081443548203 18.7729606628418 1.224830865859985 C 20.27958106994629 2.328060865402222 21.40066146850586 3.849170923233032 22.01500129699707 5.623730659484863 L 22.24472045898438 6.287300586700439 L 21.54251098632812 6.287300586700439 L 20.02424049377441 6.287300586700439 L 19.69290161132812 6.287300586700439 L 19.56377029418945 5.982151031494141 C 19.06063079833984 4.793150901794434 18.23548126220703 3.785610914230347 17.17752075195312 3.068460702896118 C 16.09489059448242 2.33457088470459 14.82319068908691 1.946660876274109 13.49990081787109 1.946660876274109 C 11.72226047515869 1.946660876274109 10.06055068969727 2.641770839691162 8.820860862731934 3.903950929641724 C 7.578770637512207 5.168540954589844 6.894721031188965 6.864920616149902 6.894721031188965 8.680621147155762 L 6.894721031188965 11.7979211807251 L 18.47372055053711 11.7979211807251 L 24.86844062805176 11.7979211807251 C 25.56875038146973 11.7979211807251 26.22949028015137 12.07798099517822 26.72896003723145 12.586501121521 C 27.22603988647461 13.09259128570557 27.49980163574219 13.76076126098633 27.49980163574219 14.46792125701904 L 27.49980163574219 31.82981109619141 C 27.49980163574219 32.53696060180664 27.22603988647461 33.20513153076172 26.72896003723145 33.71123123168945 C 26.22949028015137 34.21974945068359 25.56874084472656 34.49980163574219 24.86844062805176 34.49980163574219 Z M 2.131360769271851 14.24459075927734 C 2.015320777893066 14.24459075927734 1.920910835266113 14.34478092193604 1.920910835266113 14.46792125701904 L 1.920910835266113 31.82981109619141 C 1.920910835266113 31.95295143127441 2.015320777893066 32.05314254760742 2.131360769271851 32.05314254760742 L 24.86844062805176 32.05314254760742 C 24.9844799041748 32.05314254760742 25.07889175415039 31.95295143127441 25.07889175415039 31.82981109619141 L 25.07889175415039 14.46792125701904 C 25.07889175415039 14.34478092193604 24.9844799041748 14.24459075927734 24.86844062805176 14.24459075927734 L 2.131360769271851 14.24459075927734 Z M 13.49990081787109 27.26584053039551 C 12.44071102142334 27.26584053039551 11.5789909362793 26.39257049560547 11.5789909362793 25.31918144226074 L 11.5789909362793 23.50065040588379 C 11.12488174438477 23.0311222076416 10.86854076385498 22.38834571838379 10.86854076385498 21.70188140869141 C 10.86854076385498 20.97551155090332 11.13710117340088 20.30205154418945 11.62476062774658 19.80556106567383 C 12.11480045318604 19.30665016174316 12.78074073791504 19.03188133239746 13.49990081787109 19.03188133239746 C 14.21906089782715 19.03188133239746 14.88500118255615 19.30665016174316 15.37504100799561 19.80556106567383 C 15.86270046234131 20.30207061767578 16.13125991821289 20.97552108764648 16.13125991821289 21.70188140869141 C 16.13125991821289 22.38833618164062 15.87491989135742 23.03112030029297 15.42081069946289 23.50065040588379 L 15.42081069946289 25.31918144226074 C 15.42081069946289 26.39257049560547 14.55909061431885 27.26584053039551 13.49990081787109 27.26584053039551 Z" stroke="none" fill="#fff"/></g></svg>