<?xml version="1.0" encoding="utf-8"?>
<!-- Generator: Adobe Illustrator 27.2.0, SVG Export Plug-In . SVG Version: 6.00 Build 0)  -->
<svg version="1.1" id="Layer_2_00000036962793965141408990000017036577464070791074_"
	 xmlns="http://www.w3.org/2000/svg" xmlns:xlink="http://www.w3.org/1999/xlink" x="0px" y="0px" viewBox="0 0 179.7 161.9"
	 style="enable-background:new 0 0 179.7 161.9;" xml:space="preserve">
<style type="text/css">
	.st0{fill:#D40029;}
</style>
<g id="Inventory_Mgmt">
	<g id="Unproductive_Inventory">
		<g>
			<path class="st0" d="M142.1,86.7c-20.8,0-37.6,16.8-37.6,37.6c0,20.8,16.8,37.6,37.6,37.6c20.8,0,37.6-16.8,37.6-37.6
				C179.7,103.5,162.9,86.7,142.1,86.7L142.1,86.7z M151.9,134.1c-2.6,2.5-5.9,4.1-9.8,4.1c-3.9,0-7.2-1.5-9.8-4.1
				c-2.5-2.6-4.1-5.9-4.1-9.8c0-3.9,1.5-7.2,4.1-9.8c2.6-2.5,5.9-4.1,9.8-4.1c3.9,0,7.3,1.5,9.8,4.1c2.6,2.6,4.1,5.9,4.1,9.8
				C156,128.2,154.5,131.5,151.9,134.1L151.9,134.1z"/>
			<path class="st0" d="M37.6,75.1c20.7,0,37.5-16.8,37.6-37.6C75.1,16.8,58.3,0,37.6,0C16.8,0,0,16.8,0,37.6
				C0,58.3,16.8,75.1,37.6,75.1z M27.7,27.7c2.6-2.6,5.9-4.1,9.9-4.1c3.9,0,7.3,1.5,9.9,4.1c2.6,2.6,4.1,6,4.1,9.9
				c0,3.9-1.5,7.3-4.1,9.9c-2.6,2.6-6,4.1-9.9,4.1c-3.9,0-7.3-1.5-9.9-4.1c-2.6-2.6-4.1-6-4.1-9.9C23.6,33.6,25.1,30.2,27.7,27.7z"
				/>
			<polygon class="st0" points="28.4,161.9 169.9,19.3 150.5,0 9.1,142.6 			"/>
		</g>
	</g>
</g>
</svg>
